<?xml version="1.0" encoding="utf-8"?>
<!-- Generator: Adobe Illustrator 18.0.0, SVG Export Plug-In . SVG Version: 6.00 Build 0)  -->
<!DOCTYPE svg PUBLIC "-//W3C//DTD SVG 1.1//EN" "http://www.w3.org/Graphics/SVG/1.1/DTD/svg11.dtd">
<svg version="1.1" id="Layer_1" xmlns="http://www.w3.org/2000/svg" xmlns:xlink="http://www.w3.org/1999/xlink" x="0px" y="0px"
	 viewBox="0 0 136.022 56.911" width="488.884726781" height="204.547195938" enable-background="new 0 0 136.022 56.911" xml:space="preserve">
<path fill-rule="evenodd" clip-rule="evenodd" fill="#FE0000" d="M27.578,0c2.968,0,5.375,2.407,5.375,5.375
	c0,2.969-2.407,5.374-5.375,5.374c-2.968,0-5.375-2.405-5.375-5.374C22.203,2.407,24.61,0,27.578,0"/>
<path fill="#FE0000" d="M32.689,37.371v11.755c0,0,9.89-10.442,13.742-14.812c3.851-4.368,4.21-6.235,4.05-9.691
	c-0.199-7.625-7.109-11.04-10.96-11.159c-3.852-0.118-5.797,0.875-7.704,2.066c0-0.041,3.534,1.906,3.413,6.79v12.747
	C35.231,37.531,32.689,37.371,32.689,37.371 M19.618,35.067V22.32c-0.119-4.884,3.415-6.831,3.415-6.79
	c-1.905-1.193-3.852-2.184-7.704-2.066c-3.853,0.119-10.761,3.534-10.96,11.159c-0.16,3.456,0.199,5.323,4.052,9.691
	c3.849,4.37,13.74,14.812,13.74,14.812V37.371C22.16,37.371,19.618,37.531,19.618,35.067 M27.409,18.508c0,0-3.454,0-3.454,3.534
	c0,2.066,0.078,11.042,0.039,11.001c-0.039-0.039,2.462-0.119,2.462,2.622c0,1.944-0.024,17.792,0.039,18.943
	c0.041,0.713-0.238,1.666-1.271,2.104c-0.878,0.372-1.707,0.317-2.898-0.992c-2.72-2.992-12.033-13.106-16.165-17.554
	c-4.129-4.448-4.844-5.877-5.836-9.848c-0.89-3.552-0.834-14.933,12.192-18.746c9.212-2.223,14.933,4.13,14.933,4.13
	s5.719-6.353,14.932-4.13c13.027,3.813,13.08,15.194,12.191,18.746c-0.992,3.971-1.709,5.4-5.838,9.848
	c-4.13,4.448-13.443,14.562-16.164,17.554c-1.19,1.309-2.02,1.364-2.899,0.992c-1.033-0.438-1.31-1.391-1.271-2.104
	c0.065-1.151,0.041-16.999,0.041-18.943c0-2.741,2.501-2.661,2.462-2.622c-0.039,0.041,0.039-8.935,0.039-11.001
	C30.943,18.508,27.409,18.508,27.409,18.508"/>
<rect x="62.345" y="31.304" width="73.677" height="0.828"/>
<path d="M70.279,39.717c-0.539-0.008-1.068-0.037-1.607-0.037c-0.527,0-1.068,0.019-1.607,0.037v0.549
	c0,1.076,0.022,1.815,0.084,2.663c-0.232-0.022-0.517-0.049-0.867-0.049s-0.633,0.027-0.867,0.049
	c0.064-0.848,0.086-1.587,0.086-2.663v-1.309c0-1.073-0.022-1.815-0.086-2.661c0.234,0.02,0.517,0.049,0.867,0.049
	s0.635-0.029,0.867-0.049c-0.062,0.838-0.084,1.576-0.084,2.644c0.36,0.009,0.867,0.017,1.618,0.017c0.75,0,1.194-0.008,1.596-0.017
	c0-1.068-0.021-1.806-0.084-2.644c0.232,0.02,0.52,0.049,0.869,0.049c0.348,0,0.633-0.029,0.864-0.049
	c-0.061,0.846-0.083,1.588-0.083,2.661v1.309c0,1.076,0.022,1.815,0.083,2.663c-0.231-0.022-0.516-0.049-0.864-0.049
	c-0.349,0-0.637,0.027-0.869,0.049c0.063-0.848,0.084-1.587,0.084-2.663V39.717z"/>
<path d="M80.094,36.17c2.239,0,4.007,1.115,4.007,3.433c0,1.902-1.682,3.448-4.04,3.448c-2.231,0-4.028-1.037-4.028-3.438
	C76.033,37.719,77.64,36.17,80.094,36.17 M80.061,36.719c-1.449,0-2.294,1.326-2.294,2.979c0,2.046,1.036,2.757,2.22,2.757
	c1.269,0,2.38-0.96,2.38-3.055C82.367,37.737,81.426,36.719,80.061,36.719"/>
<path d="M91.407,37.594c-0.223-0.547-0.635-0.828-1.279-0.828c-0.647,0-1.101,0.404-1.101,0.867c0,1.422,3.216,1.066,3.216,3.247
	c0,1.289-1.121,2.171-2.802,2.171c-0.762,0-1.396-0.201-1.703-0.412c0.137-0.442,0.232-0.788,0.307-1.22h0.201
	c0.115,0.557,0.601,1.037,1.458,1.037c0.826,0,1.236-0.441,1.236-0.98c0-1.451-3.149-1.067-3.149-3.247
	c0-1.328,1.121-2.059,2.378-2.059c0.761,0,1.334,0.182,1.736,0.473c-0.129,0.297-0.201,0.527-0.34,0.951H91.407z"/>
<path d="M96.359,38.957c0-1.073-0.022-1.815-0.086-2.661c0.231,0.02,0.518,0.049,0.868,0.049c0.486,0,1.035-0.049,1.543-0.049
	c0.996,0,1.513,0.145,1.841,0.395c0.443,0.336,0.656,0.73,0.656,1.299c0,1.469-1.145,2.055-2.72,2.055h-0.537
	c0,0.961,0.01,1.921,0.084,2.884c-0.232-0.022-0.517-0.049-0.867-0.049c-0.35,0-0.637,0.027-0.868,0.049
	c0.064-0.848,0.086-1.587,0.086-2.663V38.957z M98.389,36.844c-0.17,0-0.328,0-0.445,0.01c-0.01,0.902-0.02,1.807-0.02,2.7
	c0.707,0,1.586-0.172,1.586-1.413C99.51,37.16,98.991,36.844,98.389,36.844"/>
<path d="M105.254,38.957c0-1.074-0.023-1.815-0.086-2.661c0.232,0.019,0.52,0.049,0.867,0.049c0.35,0,0.634-0.03,0.866-0.049
	c-0.062,0.846-0.084,1.587-0.084,2.661v1.309c0,1.075,0.022,1.815,0.084,2.663c-0.232-0.022-0.516-0.049-0.866-0.049
	c-0.347,0-0.635,0.027-0.867,0.049c0.063-0.848,0.086-1.588,0.086-2.663V38.957z"/>
<path d="M112.856,37.864c0-0.365,0-0.713-0.031-0.848c-0.412,0-1.301,0.059-1.935,0.125c0.031-0.142,0.051-0.277,0.051-0.422
	c0-0.144-0.02-0.279-0.051-0.423c0.962,0.031,1.439,0.048,2.749,0.048c1.312,0,1.786-0.017,2.685-0.048
	c-0.031,0.144-0.053,0.279-0.053,0.423c0,0.145,0.022,0.28,0.053,0.422c-0.571-0.066-1.459-0.125-1.881-0.125
	c-0.022,0.135-0.022,0.483-0.022,0.848v2.401c0,1.077,0.022,1.817,0.084,2.663c-0.231-0.02-0.516-0.047-0.866-0.047
	c-0.347,0-0.635,0.027-0.867,0.047c0.063-0.846,0.084-1.586,0.084-2.663V37.864z"/>
<path d="M125.748,42.928c-0.34-0.021-0.635-0.049-0.932-0.049c-0.295,0-0.6,0.028-0.897,0.049c-0.225-0.654-0.467-1.317-0.731-1.97
	c-0.455-0.009-0.898-0.019-1.353-0.019c-0.371,0-0.731,0.01-1.099,0.019c-0.287,0.653-0.518,1.306-0.721,1.97
	c-0.168-0.021-0.326-0.049-0.496-0.049c-0.17,0-0.328,0.028-0.529,0.049c0.518-1.067,2.102-4.488,3.013-6.68
	c0.138,0.02,0.263,0.047,0.402,0.049c0.139-0.002,0.266-0.029,0.402-0.049C123.706,38.44,124.941,41.363,125.748,42.928
	 M122.946,40.39c-0.309-0.777-0.604-1.537-0.943-2.288c-0.358,0.751-0.688,1.511-0.995,2.288H122.946z"/>
<path d="M129.714,38.957c0-1.074-0.021-1.813-0.084-2.659c0.234,0.017,0.52,0.047,0.869,0.047c0.348,0,0.635-0.03,0.866-0.047
	c-0.064,0.846-0.086,1.585-0.086,2.659v1.309c0,0.71,0.012,1.44,0.022,1.942c0.793,0,1.607-0.039,2.422-0.125
	c-0.02,0.133-0.043,0.228-0.043,0.432c0,0.201,0.023,0.296,0.043,0.414c-0.381-0.01-0.879-0.049-1.85-0.049
	c-1.723,0-2.009,0.027-2.243,0.049c0.063-0.846,0.084-1.588,0.084-2.663V38.957z"/>
<path d="M70.601,52.881c-0.307-0.018-0.574-0.045-0.844-0.045c-0.267,0-0.546,0.027-0.813,0.045
	c-0.201-0.594-0.422-1.195-0.662-1.788c-0.412-0.008-0.817-0.02-1.229-0.02c-0.336,0-0.662,0.012-0.997,0.02
	c-0.258,0.593-0.471,1.184-0.65,1.788c-0.155-0.02-0.299-0.045-0.451-0.045c-0.155,0-0.299,0.025-0.481,0.045
	c0.471-0.97,1.909-4.073,2.733-6.063c0.124,0.02,0.241,0.043,0.366,0.043c0.123,0.002,0.238-0.023,0.363-0.043
	C68.75,48.808,69.874,51.46,70.601,52.881 M68.061,50.577c-0.277-0.705-0.547-1.395-0.854-2.075c-0.326,0.68-0.623,1.37-0.902,2.075
	H68.061z"/>
<path d="M73.086,50.7c0-0.941,0.02-1.414,0.02-2.04c0-0.924-0.02-1.51-0.038-1.797c0.258,0.027,0.528,0.043,0.786,0.043
	c0.259,0,0.526-0.016,0.786-0.043c-0.125,1.135-0.135,2.041-0.135,3.052c0,2.129,0.672,2.475,1.92,2.475
	c1.535,0,1.639-1.506,1.639-3.129c0-0.802-0.029-1.595-0.077-2.398c0.163,0.027,0.326,0.043,0.49,0.043
	c0.162,0,0.316-0.016,0.478-0.043c-0.057,0.516-0.123,1.762-0.125,3.269c0,2.025-0.968,2.86-2.827,2.86
	C74.362,52.992,73.086,52.341,73.086,50.7"/>
<path d="M83.587,48.284c0-0.332,0-0.646-0.027-0.768c-0.375,0-1.182,0.053-1.756,0.114c0.027-0.131,0.049-0.252,0.049-0.385
	c0-0.131-0.02-0.252-0.049-0.383c0.873,0.027,1.304,0.043,2.494,0.043c1.188,0,1.62-0.016,2.434-0.043
	c-0.027,0.131-0.046,0.252-0.046,0.383c0,0.133,0.019,0.254,0.046,0.385c-0.517-0.061-1.322-0.114-1.707-0.114
	c-0.019,0.122-0.019,0.436-0.019,0.768v2.179c0,0.978,0.019,1.648,0.078,2.418c-0.21-0.018-0.47-0.045-0.786-0.045
	c-0.316,0-0.576,0.027-0.787,0.045c0.058-0.77,0.076-1.44,0.076-2.418V48.284z"/>
<path d="M94.041,49.967c-0.488-0.008-0.969-0.035-1.457-0.035c-0.481,0-0.97,0.017-1.458,0.035v0.496
	c0,0.979,0.02,1.648,0.078,2.417c-0.213-0.018-0.471-0.045-0.787-0.045s-0.576,0.027-0.787,0.045
	c0.057-0.769,0.076-1.438,0.076-2.417v-1.185c0-0.976-0.019-1.648-0.076-2.415c0.211,0.017,0.471,0.042,0.787,0.042
	s0.574-0.025,0.787-0.042c-0.058,0.757-0.078,1.429-0.078,2.397c0.326,0.01,0.787,0.018,1.466,0.018
	c0.681,0,1.086-0.008,1.449-0.018c0-0.968-0.018-1.64-0.076-2.397c0.211,0.017,0.471,0.042,0.787,0.042
	c0.316,0,0.576-0.025,0.787-0.042c-0.059,0.767-0.076,1.439-0.076,2.415v1.185c0,0.979,0.017,1.648,0.076,2.417
	c-0.211-0.018-0.471-0.045-0.787-0.045c-0.316,0-0.576,0.027-0.787,0.045c0.058-0.769,0.076-1.438,0.076-2.417V49.967z"/>
<path d="M102.249,46.75c2.035,0,3.636,1.012,3.636,3.114c0,1.727-1.525,3.128-3.663,3.128c-2.024,0-3.655-0.94-3.655-3.12
	C98.567,48.154,100.026,46.75,102.249,46.75 M102.222,47.246c-1.314,0-2.081,1.203-2.081,2.704c0,1.858,0.938,2.503,2.013,2.503
	c1.152,0,2.157-0.872,2.157-2.772C104.311,48.172,103.458,47.246,102.222,47.246"/>
<path d="M110.495,50.106h-0.086v0.359c0,0.977,0.021,1.647,0.078,2.415c-0.211-0.017-0.471-0.044-0.787-0.044
	c-0.317,0-0.575,0.027-0.787,0.044c0.058-0.768,0.078-1.438,0.078-2.415v-1.187c0-0.976-0.02-1.648-0.078-2.415
	c0.212,0.017,0.47,0.043,0.787,0.043c0.345,0,0.758-0.043,1.41-0.043c0.969,0,1.323,0.08,1.659,0.295
	c0.385,0.254,0.623,0.639,0.623,1.152c0,0.847-0.535,1.386-1.485,1.605c0.612,0.986,1.341,1.98,2.042,2.965
	c-0.287-0.017-0.574-0.044-0.864-0.044c-0.287,0-0.584,0.027-0.871,0.044L110.495,50.106z M110.438,47.359
	c-0.018,0.795-0.029,1.58-0.029,2.372c0.078,0.01,0.144,0.018,0.213,0.018c0.843,0,1.304-0.428,1.304-1.247
	C111.926,47.474,111.485,47.359,110.438,47.359"/>
<path d="M116.808,49.278c0-0.977-0.02-1.648-0.078-2.415c0.211,0.018,0.469,0.043,0.787,0.043c0.316,0,0.574-0.025,0.784-0.043
	c-0.055,0.767-0.076,1.438-0.076,2.415v1.188c0,0.975,0.021,1.645,0.076,2.415c-0.21-0.018-0.468-0.045-0.784-0.045
	c-0.318,0-0.576,0.027-0.787,0.045c0.058-0.77,0.078-1.44,0.078-2.415V49.278z"/>
<path d="M123.009,48.284c0-0.332,0-0.646-0.027-0.768c-0.375,0-1.182,0.053-1.756,0.114c0.027-0.131,0.047-0.252,0.047-0.385
	c0-0.131-0.02-0.252-0.047-0.383c0.873,0.027,1.304,0.043,2.492,0.043c1.19,0,1.622-0.016,2.436-0.043
	c-0.027,0.131-0.048,0.252-0.048,0.383c0,0.133,0.021,0.254,0.048,0.385c-0.517-0.061-1.322-0.114-1.707-0.114
	c-0.019,0.122-0.019,0.436-0.019,0.768v2.181c0,0.976,0.019,1.646,0.076,2.416c-0.209-0.018-0.468-0.045-0.786-0.045
	c-0.314,0-0.574,0.027-0.785,0.045c0.058-0.77,0.076-1.44,0.076-2.416V48.284z"/>
<path d="M131.659,49.479c0.518-0.662,1.027-1.761,1.449-2.616c0.145,0.017,0.288,0.043,0.442,0.043c0.153,0,0.296-0.026,0.46-0.043
	c-0.42,0.654-1.39,2.241-2.005,3.341c0,0.277-0.02,0.566-0.02,0.853c0,0.575,0.01,1.169,0.096,1.823
	c-0.268-0.017-0.545-0.045-0.815-0.045c-0.267,0-0.546,0.028-0.816,0.045c0.029-0.558,0.117-1.142,0.117-1.683
	c0-0.271-0.01-0.54-0.019-0.812c-0.661-1.16-1.755-3.026-2.054-3.522c0.289,0.017,0.576,0.043,0.863,0.043
	c0.289,0,0.567-0.026,0.855-0.043c0.441,0.863,1.16,2.214,1.429,2.616H131.659z"/>
<path d="M68.592,24.865h1.198l-0.09,0.092v-0.594l0.09,0.092h-1.114l0.091-0.088c-0.007,0.223-0.037,0.43-0.087,0.613L68.592,24.865
	z M72.255,25.306h-1.844l0.092-0.091v0.269c0,0.027,0.01,0.049,0.029,0.068c0.037,0.038,0.145,0.098,0.469,0.098
	c0.242,0,0.65-0.025,1.213-0.076l0.017-0.002l0.018,0.006l0.031,0.01l-0.117,0.087v-0.46L72.255,25.306z M66.472,25.215v1.425
	l-0.089-0.09h5.872l-0.092,0.09v-0.392l0.105,0.092l-0.115,0.017c-0.16,0.027-0.537,0.041-1.152,0.041
	c-0.52,0-0.875-0.103-1.086-0.316c-0.143-0.141-0.215-0.33-0.215-0.561v-0.306l0.09,0.091h-1.282l0.086-0.056
	c-0.069,0.168-0.159,0.318-0.27,0.447c-0.127,0.137-0.316,0.269-0.562,0.402c-0.274,0.151-0.663,0.285-1.161,0.401l-0.087,0.021
	l-0.022-0.09l-0.043-0.181l-0.016-0.08l0.075-0.028c0.257-0.09,0.486-0.203,0.673-0.332c0.176-0.109,0.317-0.24,0.42-0.388
	c0.053-0.071,0.094-0.151,0.127-0.239l0.084,0.123h-1.429L66.472,25.215z M66.472,26.9v0.564l-0.089-0.092h5.872l-0.092,0.092V26.9
	l0.092,0.09h-5.872L66.472,26.9z M64.446,24.468l-0.199-0.439l-0.068-0.154l0.164,0.025c0.443,0.068,0.892,0.104,1.334,0.104h7.114
	l-0.067,0.029l0.58-0.593l0.051-0.055l0.065,0.041l0.779,0.517c0.111,0.086,0.166,0.174,0.166,0.268c0,0.152-0.096,0.244-0.26,0.244
	h-3.694l0.092-0.092v0.594l-0.092-0.092h1.769l-0.062,0.025l0.454-0.412l0.056-0.051l0.057,0.045l0.58,0.43
	c0.081,0.049,0.196,0.133,0.196,0.246c0,0.057-0.022,0.164-0.16,0.227c0.005-0.002-0.215,0.113-0.215,0.113l0.049-0.082v1.57
	c0-0.006,0.041,0.818,0.041,0.818c0,0.076-0.032,0.179-0.184,0.265c-0.096,0.059-0.219,0.088-0.359,0.088
	c-0.198,0-0.33-0.035-0.404-0.109c-0.043-0.043-0.066-0.1-0.066-0.164v-0.153l0.092,0.09h-5.872l0.089-0.09v0.078
	c0,0.081-0.031,0.229-0.242,0.295l0.012-0.004c-0.131,0.065-0.279,0.096-0.439,0.096c-0.203,0-0.324-0.111-0.332-0.308
	c0-0.008,0.042-0.908,0.042-0.908v-1.783c0-0.379-0.046-0.512-0.073-0.556l-0.14-0.243l0.255,0.114l0.863,0.371l-0.035-0.008h1.504
	l-0.088,0.072c0.033-0.14,0.048-0.334,0.048-0.574l0.092,0.092h-2.262c-0.373,0-0.756,0.021-1.137,0.066l-0.065,0.006L64.446,24.468
	z M69.665,22.01l-0.199-0.451l-0.069-0.154l0.166,0.027c0.442,0.069,0.895,0.104,1.344,0.104h1.524l-0.053,0.019l0.44-0.336
	l0.055-0.041l0.055,0.041l0.652,0.479l0.006,0.002l0.004,0.004c0.074,0.07,0.113,0.146,0.113,0.23c0,0.047-0.02,0.162-0.186,0.203
	c-0.002,0-0.296,0.067-0.296,0.067l0.042-0.022c-0.261,0.244-0.511,0.457-0.744,0.637l-0.045-0.162l0.159,0.019
	c0.394,0.051,0.767,0.082,1.107,0.094l0.104,0.004l-0.016,0.102l-0.043,0.267l-0.012,0.078h-0.078c-0.105,0-0.203,0.02-0.289,0.059
	l-0.008,0.004l-0.006,0.002c-0.004,0-0.078,0.031-0.222,0.394l-0.028,0.07l-0.074-0.014c-0.418-0.077-0.775-0.173-1.057-0.28
	c-0.122-0.047-0.239-0.096-0.344-0.147l0.088-0.006c-0.282,0.17-0.604,0.303-0.963,0.392c-0.377,0.084-0.904,0.162-1.571,0.232
	l-0.07,0.008l-0.025-0.064l-0.072-0.193l-0.041-0.103l0.111-0.018c0.435-0.076,0.836-0.172,1.185-0.285
	c0.299-0.103,0.582-0.244,0.842-0.418l-0.006,0.147c-0.144-0.112-0.283-0.244-0.412-0.395c-0.17-0.172-0.338-0.389-0.502-0.64
	l0.082,0.041c-0.179,0.011-0.365,0.031-0.552,0.056l-0.069,0.01L69.665,22.01z M70.2,19.27l0.746,0.373l-0.039-0.009h1.01
	l-0.067,0.031l0.336-0.373l0.053-0.059l0.066,0.043l0.599,0.402c0.098,0.073,0.145,0.151,0.145,0.239
	c0,0.056-0.02,0.158-0.164,0.209l0.015-0.006l-0.22,0.135l0.044-0.08v0.334c0,0.02,0.002,0.026,0.002,0.026l-0.002-0.004
	c0,0,0.002,0.002,0.014,0.002h0.453c0.104,0,0.139-0.006,0.147-0.008l-0.018,0.006c-0.004,0.002-0.006,0.004-0.006,0.004
	c0.018-0.014,0.088-0.094,0.297-0.577l0.029-0.067l0.073,0.012l0.209,0.037l0.076,0.016v0.076v0.401c0,0.055,0.014,0.135,0.14,0.207
	l0.006,0.002l0.004,0.004c0.061,0.043,0.133,0.125,0.133,0.276c0,0.095-0.043,0.232-0.246,0.312l-0.006,0.004h-0.006
	c-0.203,0.053-0.416,0.08-0.633,0.08h-0.822c-0.237,0-0.425-0.059-0.554-0.178c-0.119-0.117-0.177-0.308-0.177-0.593v-0.552
	l0.092,0.09h-1.034l0.092-0.082c-0.015,0.138-0.041,0.269-0.078,0.381c-0.051,0.19-0.133,0.37-0.242,0.53
	c-0.135,0.189-0.311,0.349-0.524,0.476c-0.162,0.094-0.355,0.17-0.574,0.223l-0.074,0.018l-0.029-0.071l-0.084-0.191l-0.034-0.074
	l0.069-0.041c0.119-0.071,0.222-0.153,0.308-0.245c0.086-0.087,0.155-0.181,0.207-0.275c0.057-0.115,0.1-0.248,0.127-0.385
	c0.034-0.161,0.053-0.331,0.053-0.508c0-0.184-0.016-0.342-0.043-0.469l-0.037-0.186L70.2,19.27z M66.357,20.048l0.715,0.132
	c0.217,0.036,0.264,0.141,0.264,0.224c0,0.049-0.022,0.168-0.215,0.195l0.012-0.002l-0.274,0.077l0.047-0.034l-0.115,0.153
	l-0.072-0.147h1.136l-0.06,0.024l0.422-0.372l0.052-0.047l0.059,0.039l0.525,0.354c0.086,0.067,0.125,0.131,0.125,0.199
	c0,0.127-0.085,0.207-0.216,0.207h-0.991l0.09-0.091c0,0.242-0.025,0.465-0.076,0.664l-0.088-0.114h0.494l-0.06,0.024l0.453-0.412
	l0.053-0.049l0.058,0.041l0.556,0.373c0.094,0.074,0.137,0.145,0.137,0.221c0,0.125-0.084,0.205-0.219,0.205h-1.534l0.084-0.057
	l-0.065,0.153l-0.062-0.124c0.271,0.067,0.496,0.139,0.67,0.217c0.234,0.114,0.347,0.241,0.347,0.389
	c0,0.275-0.162,0.426-0.459,0.426c-0.086,0-0.152-0.067-0.195-0.117c-0.156-0.166-0.35-0.336-0.576-0.504l0.117-0.004l-0.031,0.027
	l0.007-0.01c-0.111,0.135-0.279,0.27-0.498,0.395c-0.234,0.148-0.58,0.285-1.023,0.4l-0.092,0.026l-0.019-0.094l-0.041-0.192
	l-0.018-0.074l0.072-0.029c0.215-0.086,0.405-0.193,0.567-0.32c0.146-0.112,0.265-0.239,0.359-0.381
	c0.043-0.069,0.078-0.151,0.104-0.242l0.088,0.115h-0.094c-0.326,0-0.656,0.012-0.983,0.037l-0.062,0.006l-0.027-0.055l-0.166-0.336
	l-0.08-0.154l0.172,0.023c0.38,0.051,0.765,0.076,1.146,0.076h0.158l-0.092,0.084l0.043-0.64l0.09,0.097h-0.547l0.065-0.027
	l-0.084,0.086c-0.116,0.117-0.278,0.256-0.485,0.41l-0.058,0.045l-0.057-0.051l-0.127-0.113l-0.054-0.051l0.036-0.062
	c0.118-0.201,0.215-0.397,0.29-0.582c0.084-0.194,0.148-0.392,0.195-0.589l0.021-0.084L66.357,20.048z M69.212,20.229h-3.568
	l0.093-0.092v2.956l-0.093-0.091h2.705l-0.062,0.027l0.492-0.488l0.053-0.053l0.061,0.041l0.674,0.43l0.004,0.004l0.004,0.002
	c0.092,0.076,0.139,0.158,0.139,0.242c0,0.174-0.108,0.234-0.207,0.234h-3.863l0.093-0.09v0.231c0,0.086-0.039,0.202-0.23,0.266
	c-0.113,0.028-0.229,0.043-0.356,0.043c-0.138,0-0.24-0.033-0.304-0.099c-0.055-0.053-0.082-0.124-0.082-0.21l0.042-1.428v-2.056
	c0-0.224-0.027-0.414-0.08-0.562l-0.068-0.201l0.191,0.088l0.832,0.373l-0.038-0.008h2.379l-0.062,0.025l0.535-0.527l0.053-0.051
	l0.062,0.041l0.704,0.469c0.106,0.078,0.156,0.16,0.156,0.25C69.471,20.138,69.374,20.229,69.212,20.229 M70.909,21.987l-0.314,0.01
	l0.052-0.162c0.186,0.148,0.358,0.267,0.514,0.353c0.182,0.115,0.369,0.207,0.566,0.283l-0.091,0.018
	c0.185-0.17,0.394-0.389,0.623-0.652l0.069,0.15H70.909z"/>
<path d="M83.036,24.288l-0.21-0.449l-0.074-0.158l0.171,0.029c0.441,0.076,0.894,0.115,1.344,0.115h3.124l-0.067,0.028l0.611-0.643
	l0.053-0.053l0.065,0.041l0.82,0.545l0.004,0.004l0.004,0.002c0.105,0.09,0.16,0.18,0.16,0.272c0,0.152-0.094,0.244-0.25,0.244
	h-2.106l0.092-0.092v2.688c0,0.041,0.012,0.073,0.035,0.098c0.038,0.035,0.125,0.078,0.338,0.078h0.799
	c0.32,0,0.361-0.142,0.375-0.191c0.002,0,0.338-1.129,0.338-1.129l0.023-0.08l0.081,0.015l0.201,0.039l0.074,0.014v0.076v1.156
	c0,0.081,0.029,0.125,0.102,0.155l0.003,0.004l0.006,0.002c0.119,0.066,0.184,0.181,0.184,0.328c0,0.177-0.092,0.31-0.268,0.381
	l-0.006,0.002l-0.003,0.002c-0.286,0.08-0.762,0.117-1.458,0.117c-0.808,0-1.314-0.063-1.538-0.194
	c-0.193-0.121-0.289-0.324-0.289-0.605v-2.956l0.092,0.092h-0.822l0.092-0.09c-0.014,0.568-0.086,1.067-0.215,1.489
	c-0.108,0.377-0.268,0.711-0.477,0.984c-0.199,0.243-0.496,0.477-0.89,0.704c-0.416,0.269-1.027,0.515-1.812,0.726l-0.078,0.024
	l-0.031-0.081l-0.084-0.228l-0.031-0.086l0.087-0.031c0.473-0.17,0.895-0.381,1.25-0.631c0.33-0.205,0.601-0.453,0.812-0.734
	c0.139-0.206,0.25-0.463,0.332-0.766c0.082-0.297,0.127-0.759,0.133-1.372l0.094,0.092c-0.368,0-0.735,0.025-1.094,0.076
	l-0.067,0.008L83.036,24.288z M83.602,22.64l-0.199-0.448l-0.068-0.156l0.166,0.029c0.443,0.075,0.894,0.112,1.344,0.112h1.682
	l-0.065,0.029l0.567-0.601l0.055-0.056l0.062,0.043l0.78,0.514l0.004,0.004l0.004,0.004c0.105,0.088,0.16,0.178,0.16,0.27
	c0,0.146-0.094,0.234-0.25,0.234h-2.999c-0.381,0-0.766,0.026-1.145,0.076l-0.068,0.01L83.602,22.64z M85.14,19.223l0.99,0.125
	c0.241,0.031,0.363,0.125,0.363,0.271c0,0.24-0.357,0.35-0.474,0.385l0.064-0.088v0.783l-0.09-0.09h1.81l-0.059,0.022l0.535-0.449
	l0.053-0.045l0.059,0.039l0.724,0.488l-0.01-0.008c0.123,0.061,0.188,0.164,0.188,0.303c0,0.117-0.096,0.199-0.281,0.242
	c0.002-0.002-0.282,0.076-0.282,0.076l0.036-0.019c-0.241,0.207-0.563,0.435-0.957,0.679l-0.038,0.021l-0.039-0.014l-0.242-0.076
	l-0.101-0.033l0.046-0.095c0.145-0.287,0.256-0.558,0.333-0.806l0.087,0.117h-4.411l0.09-0.082c-0.049,0.47-0.14,0.804-0.275,1.014
	c-0.149,0.248-0.324,0.377-0.519,0.377c-0.168,0-0.295-0.043-0.381-0.129c-0.08-0.078-0.121-0.193-0.121-0.335
	c0-0.128,0.055-0.257,0.158-0.384c0.127-0.133,0.239-0.268,0.332-0.403c0.127-0.201,0.269-0.527,0.422-0.964l0.023-0.073
	l0.076,0.012l0.252,0.039l0.082,0.012l-0.006,0.082l-0.019,0.488l-0.092-0.096h1.705l-0.09,0.09v-0.822
	c0-0.09-0.016-0.277-0.043-0.555l-0.012-0.113L85.14,19.223z M81.582,20.084h-1.137l0.092-0.09v7.881
	c0,0.088-0.047,0.207-0.266,0.271c-0.125,0.028-0.259,0.041-0.404,0.041c-0.109,0-0.193-0.029-0.251-0.087
	c-0.055-0.053-0.081-0.129-0.081-0.225l0.03-1.494v-6.426c0-0.234-0.023-0.428-0.068-0.576l-0.059-0.19l0.182,0.079l0.862,0.373
	l-0.037-0.008h1.147l-0.063,0.027l0.41-0.41l0.055-0.055l0.063,0.045l0.685,0.487c0.113,0.082,0.174,0.171,0.174,0.267
	c0,0.061-0.027,0.172-0.203,0.221l-0.317,0.086l0.059-0.051c-0.271,0.617-0.644,1.371-1.107,2.243l-0.036-0.121
	c0.411,0.242,0.754,0.57,1.022,0.977c0.225,0.4,0.34,0.775,0.34,1.121c0,0.552-0.168,1.001-0.5,1.337
	c-0.266,0.242-0.555,0.361-0.865,0.361h-0.084l-0.006-0.084c-0.024-0.264-0.086-0.416-0.18-0.434
	c-0.008-0.002-0.545-0.156-0.545-0.156l-0.078-0.021l0.014-0.08l0.041-0.258l0.015-0.083l0.084,0.008l0.705,0.066
	c0.114-0.002,0.209-0.059,0.284-0.178c0.101-0.17,0.154-0.429,0.154-0.775c0-0.272-0.074-0.553-0.223-0.84
	c-0.121-0.27-0.326-0.529-0.609-0.775l-0.045-0.039l0.017-0.057c0.28-0.898,0.495-1.733,0.639-2.487L81.582,20.084z"/>
<path d="M97.147,23.581v1.042l-0.09-0.092h3.493l-0.091,0.092v-1.042l0.091,0.09h-3.493L97.147,23.581z M96.188,22.819l0.906,0.41
	l-0.037-0.007h3.462l-0.057,0.017l0.444-0.334l0.047-0.037l0.052,0.031l0.674,0.383c0.099,0.063,0.15,0.152,0.15,0.26
	c0,0.064-0.026,0.18-0.197,0.24c0.008-0.004-0.224,0.102-0.224,0.102l0.054-0.082v0.628c0.03,0.31,0.041,0.494,0.041,0.566
	c0,0.078-0.031,0.187-0.179,0.254l0.011-0.006c-0.105,0.066-0.246,0.102-0.418,0.102c-0.205,0-0.333-0.032-0.402-0.102
	c-0.037-0.035-0.056-0.082-0.056-0.135v-0.228l0.091,0.092h-3.493l0.09-0.092v0.937l-0.09-0.092h4.282l-0.054,0.02l0.441-0.334
	l0.048-0.037l0.051,0.029l0.674,0.383c0.126,0.08,0.152,0.182,0.152,0.252c0,0.074-0.033,0.18-0.193,0.246l-0.231,0.106l0.055-0.084
	v0.927c0.027,0.311,0.041,0.492,0.041,0.566c0,0.078-0.03,0.185-0.177,0.254l0.013-0.008c-0.101,0.068-0.239,0.101-0.419,0.101
	c-0.207,0-0.336-0.031-0.405-0.099c-0.037-0.037-0.054-0.084-0.054-0.135v-0.335l0.09,0.092h-4.314l0.09-0.092V27.8
	c0,0.105-0.041,0.25-0.238,0.322l0.011-0.004c-0.132,0.07-0.281,0.105-0.443,0.105c-0.23,0-0.365-0.126-0.375-0.345l0.031-0.943
	v-3.393c0-0.385-0.035-0.541-0.064-0.602l-0.11-0.226L96.188,22.819z M100.115,19.225l0.937,0.191
	c0.268,0.051,0.326,0.176,0.326,0.269c0,0.061-0.023,0.202-0.25,0.225l0.016-0.002l-0.326,0.096l0.045-0.029
	c-0.121,0.148-0.248,0.287-0.375,0.417l-0.065-0.156h2.052l-0.066,0.028l0.58-0.604l0.052-0.055l0.063,0.043l0.779,0.518
	l0.004,0.002l0.004,0.004c0.108,0.09,0.16,0.176,0.16,0.262c0,0.152-0.097,0.244-0.26,0.244h-2.399l0.045-0.172
	c0.248,0.142,0.449,0.269,0.597,0.379c0.224,0.183,0.332,0.352,0.332,0.524c0,0.324-0.194,0.502-0.542,0.502
	c-0.174,0-0.309-0.119-0.401-0.355c-0.123-0.323-0.302-0.626-0.533-0.912l0.07,0.034h-0.82l0.057-0.022l-0.096,0.078
	c-0.211,0.172-0.504,0.38-0.871,0.616l-0.035-0.166l0.254,0.038c0.244,0.025,0.371,0.113,0.371,0.261
	c0,0.217-0.278,0.325-0.486,0.385L99.4,21.78v0.412l-0.092-0.09h3.294l-0.057,0.018l0.58-0.449l0.051-0.039l0.053,0.035l0.76,0.496
	l-0.018-0.008c0.133,0.051,0.205,0.156,0.205,0.297c0,0.115-0.093,0.199-0.277,0.25l-0.287,0.068l0.041-0.023
	c-0.268,0.252-0.633,0.531-1.084,0.832l-0.037,0.023l-0.043-0.011l-0.242-0.076l-0.105-0.036l0.054-0.095
	c0.185-0.338,0.324-0.66,0.414-0.959l0.086,0.117h-7.26l0.09-0.078c-0.061,0.429-0.162,0.728-0.315,0.916
	c-0.174,0.236-0.374,0.357-0.586,0.357c-0.19,0-0.332-0.045-0.424-0.137c-0.078-0.08-0.119-0.189-0.119-0.326
	c0-0.127,0.062-0.252,0.185-0.371c0.154-0.129,0.285-0.258,0.395-0.387c0.154-0.187,0.322-0.501,0.5-0.923l0.027-0.067l0.071,0.012
	l0.241,0.039l0.078,0.012v0.078c0,0.191-0.008,0.371-0.022,0.533l-0.09-0.098h3.019l-0.089,0.09v-0.449
	c0-0.086-0.014-0.268-0.041-0.547l-0.012-0.111l0.112,0.012l0.682,0.076l-0.074,0.154l-0.148-0.154l-0.059-0.059l0.057-0.063
	c0.267-0.305,0.49-0.604,0.664-0.885c0.177-0.283,0.324-0.578,0.433-0.883l0.028-0.074L100.115,19.225z M95.833,19.225l0.947,0.191
	c0.267,0.051,0.326,0.176,0.326,0.269c0,0.061-0.025,0.202-0.25,0.225l0.016-0.002l-0.327,0.096l0.043-0.029l-0.347,0.412
	l-0.069-0.151h1.62l-0.063,0.026l0.537-0.526l0.053-0.051l0.06,0.04l0.705,0.459l0.003,0.003l0.004,0.004
	c0.102,0.082,0.151,0.16,0.151,0.243c0,0.152-0.098,0.244-0.26,0.244h-2.021l0.049-0.168c0.221,0.14,0.403,0.267,0.543,0.377
	l0.004,0.002l0.004,0.003c0.186,0.178,0.281,0.349,0.281,0.517c0,0.324-0.193,0.502-0.545,0.502c-0.162,0-0.283-0.121-0.359-0.361
	c-0.104-0.319-0.26-0.626-0.471-0.909l0.073,0.037h-0.622l0.067-0.03c-0.143,0.151-0.293,0.293-0.449,0.427
	c-0.303,0.264-0.73,0.578-1.271,0.936l-0.066,0.043l-0.053-0.059l-0.168-0.191l-0.059-0.067l0.065-0.06
	c0.43-0.411,0.785-0.812,1.062-1.201c0.288-0.384,0.519-0.785,0.683-1.197l0.029-0.07L95.833,19.225z M97.147,26.078v1.234
	l-0.09-0.091h4.314l-0.09,0.091v-1.234l0.09,0.09h-4.314L97.147,26.078z"/>
<path d="M117.32,20.265h-1.559l0.092-0.091v1.645l-0.092-0.092h1.559l-0.092,0.092v-1.645L117.32,20.265z M113.592,20.174v1.645
	l-0.094-0.092h1.445l-0.092,0.092v-1.645l0.092,0.091h-1.445L113.592,20.174z M117.32,22.169h-1.559l0.092-0.092v1.607l-0.092-0.089
	h1.559l-0.092,0.089v-1.607L117.32,22.169z M112.672,19.459l0.863,0.373l-0.037-0.008h3.738l-0.063,0.025l0.453-0.412l0.055-0.048
	l0.06,0.043l0.59,0.429c0.132,0.08,0.195,0.154,0.195,0.237c0,0.105-0.057,0.189-0.161,0.236l-0.227,0.112l0.05-0.081v2.946
	l0.041,0.818c0,0.076-0.03,0.179-0.169,0.265c-0.096,0.065-0.223,0.1-0.373,0.1c-0.19,0-0.315-0.037-0.389-0.111
	c-0.047-0.045-0.07-0.104-0.07-0.172v-0.258l0.092,0.09h-1.559l0.092-0.09v1.492l-0.092-0.092h1.107l-0.066,0.03l0.621-0.633
	l0.053-0.055l0.06,0.043l0.812,0.537c0.118,0.09,0.178,0.186,0.178,0.283c0,0.151-0.098,0.237-0.26,0.237h-2.505l0.092-0.092v1.722
	l-0.092-0.092h1.475l-0.065,0.027l0.662-0.667l0.051-0.054l0.064,0.042l0.841,0.564c0.129,0.1,0.188,0.195,0.188,0.295
	c0,0.07-0.03,0.234-0.301,0.234h-5.84c-0.373,0-0.756,0.026-1.135,0.076l-0.068,0.008l-0.029-0.062l-0.197-0.45l-0.07-0.154
	l0.168,0.028c0.441,0.076,0.888,0.113,1.331,0.113h2.107l-0.094,0.092l0.002-1.722l0.092,0.092h-1.076
	c-0.38,0-0.761,0.025-1.136,0.074l-0.065,0.01l-0.027-0.059l-0.211-0.451l-0.074-0.158l0.17,0.029
	c0.449,0.076,0.9,0.113,1.343,0.113h1.076l-0.092,0.092v-1.492l0.092,0.09h-1.445l0.094-0.09v0.143c0,0.148-0.088,0.257-0.244,0.306
	l0.012-0.004c-0.131,0.063-0.28,0.096-0.44,0.096c-0.201,0-0.322-0.115-0.332-0.316c0-0.01,0.041-0.908,0.041-0.908v-3.133
	c0-0.377-0.043-0.504-0.07-0.545l-0.156-0.248L112.672,19.459z M108.976,20.622l-0.201-0.448l-0.069-0.157l0.166,0.03
	c0.444,0.076,0.891,0.113,1.332,0.113h0.864l-0.063,0.025l0.577-0.564l0.053-0.051l0.061,0.039l0.748,0.489l0.005,0.001l0.002,0.006
	c0.1,0.08,0.151,0.168,0.151,0.26c0,0.148-0.094,0.233-0.25,0.233h-1.314l0.092-0.089v2.287l-0.092-0.092h0.073l-0.065,0.027
	l0.536-0.527l0.053-0.051l0.061,0.041l0.707,0.457l0.001,0.004l0.006,0.004c0.1,0.082,0.149,0.162,0.149,0.242
	c0,0.153-0.094,0.244-0.25,0.244h-1.271l0.092-0.091v2.19l-0.119-0.086l0.367-0.117c0.413-0.125,0.767-0.254,1.05-0.387l0.107-0.049
	l0.022,0.116l0.043,0.218l0.01,0.055l-0.043,0.033c-0.235,0.188-0.504,0.369-0.803,0.535c-0.3,0.186-0.708,0.387-1.208,0.598
	c-0.289,0.129-0.561,0.232-0.807,0.311l0.055-0.047l-0.129,0.257c-0.076,0.192-0.199,0.233-0.291,0.233
	c-0.08-0.008-0.178-0.055-0.225-0.24l-0.273-0.985l-0.029-0.107l0.109-0.008c0.324-0.025,0.727-0.092,1.197-0.197l-0.015,0.004
	l0.021-0.008l-0.055,0.082v-2.401l0.09,0.091c-0.343,0-0.697,0.024-1.049,0.075l-0.066,0.009l-0.029-0.06l-0.211-0.449l-0.074-0.157
	l0.172,0.028c0.421,0.068,0.845,0.107,1.259,0.113l-0.092,0.092v-2.287l0.09,0.089c-0.373,0-0.754,0.028-1.134,0.077l-0.067,0.009
	L108.976,20.622z M113.592,22.077v1.607l-0.094-0.089h1.445l-0.092,0.089v-1.607l0.092,0.092h-1.445L113.592,22.077z"/>
<path d="M127.569,24.545v1.533l-0.091-0.092h2.378l-0.091,0.092v-1.533l0.091,0.092h-2.378L127.569,24.545z M126.65,23.831
	l0.863,0.375l-0.035-0.008h2.304l-0.062,0.023l0.454-0.412l0.054-0.051l0.061,0.045l0.578,0.43c0.131,0.082,0.195,0.154,0.195,0.236
	c0,0.108-0.056,0.19-0.16,0.237c0.006-0.002-0.216,0.113-0.216,0.113l0.05-0.08v0.858l0.041,0.811c0,0.082-0.031,0.191-0.187,0.267
	l0.012-0.008c-0.1,0.069-0.223,0.104-0.37,0.104c-0.193,0-0.323-0.037-0.397-0.113c-0.045-0.043-0.07-0.104-0.07-0.17v-0.145
	l0.091,0.092h-2.378l0.091-0.092v0.375c0,0.082-0.031,0.229-0.244,0.297l0.012-0.006c-0.131,0.065-0.277,0.096-0.438,0.096
	c-0.203,0-0.323-0.111-0.333-0.307c0-0.007,0.041-0.908,0.041-0.908v-1.382c0-0.377-0.043-0.504-0.071-0.545l-0.156-0.248
	L126.65,23.831z M131.666,21.911h-5.873l0.092-0.091v0.526c0,0.242-0.006,0.481-0.02,0.713l-0.092-0.098h6.588l-0.062,0.028
	l0.461-0.449l0.052-0.053l0.061,0.041l0.716,0.478c0.123,0.082,0.187,0.172,0.187,0.268c0,0.123-0.134,0.236-0.463,0.389
	l0.053-0.075c-0.22,2.298-0.368,3.56-0.454,3.853l-0.004,0.006l-0.002,0.006c-0.121,0.281-0.312,0.48-0.572,0.593l0.012-0.007
	c-0.246,0.15-0.598,0.224-1.047,0.224h-0.078l-0.014-0.074c-0.055-0.307-0.184-0.479-0.393-0.522l-1.133-0.228l-0.09-0.018
	l0.017-0.089l0.042-0.219l0.015-0.082l0.082,0.008l1.644,0.142c0.152,0,0.281-0.025,0.38-0.076c0.096-0.051,0.165-0.148,0.208-0.299
	c0.074-0.219,0.216-1.396,0.417-3.503l0.09,0.1h-6.724l0.092-0.084c-0.065,1.025-0.237,1.904-0.512,2.608
	c-0.311,0.836-0.76,1.563-1.334,2.155l-0.061,0.062l-0.064-0.055l-0.17-0.144l-0.061-0.053l0.045-0.068
	c0.33-0.481,0.602-1.084,0.811-1.793c0.248-0.822,0.373-2.064,0.373-3.685v-2.249c0-0.287-0.014-0.519-0.039-0.693l-0.031-0.188
	l0.166,0.094l0.789,0.449l-0.045-0.009h5.873l-0.063,0.023l0.483-0.449l0.054-0.053l0.063,0.045l0.621,0.461l-0.01-0.008
	c0.145,0.082,0.215,0.17,0.215,0.262c0,0.058-0.023,0.166-0.172,0.228l-0.262,0.114l0.055-0.084v0.707l0.043,0.82
	c0,0.083-0.031,0.196-0.17,0.28l0.006-0.004c-0.1,0.076-0.228,0.116-0.381,0.116c-0.219,0-0.359-0.038-0.435-0.116
	c-0.043-0.043-0.067-0.097-0.067-0.158V21.82L131.666,21.911z M131.666,20.189h-5.873l0.092-0.092v1.465l-0.092-0.092h5.873
	l-0.092,0.092v-1.465L131.666,20.189z"/>
</svg>
